<svg height="200" viewBox="0 0 200 200" width="200" xmlns="http://www.w3.org/2000/svg" xmlns:xlink="http://www.w3.org/1999/xlink"><linearGradient id="a" x1="50%" x2="50%" y1="0%" y2="100%"><stop offset="0" stop-color="#fffcc9"/><stop offset="1" stop-color="#fff799"/></linearGradient><linearGradient id="b" x1="50%" x2="50%" y1="0%" y2="100%"><stop offset="0" stop-color="#a9d9ff"/><stop offset="1" stop-color="#7ac5ff"/></linearGradient><g fill="none" fill-rule="evenodd"><path d="m42.7425 62.73c-11.0387914 0-19.9875-8.9487086-19.9875-19.9875s8.9487086-19.9875 19.9875-19.9875 19.9875 8.9487086 19.9875 19.9875-8.9487086 19.9875-19.9875 19.9875zm-39.60327574-17.835c-1.6982756 0-3.075-1.3767244-3.075-3.075s1.3767244-3.075 3.075-3.075h12.99903044c1.6982756 0 3.075 1.3767244 3.075 3.075s-1.3767244 3.075-3.075 3.075zm66.27174534 0c-1.6982756 0-3.075-1.3767244-3.075-3.075s1.3767244-3.075 3.075-3.075h12.9990304c1.6982756 0 3.075 1.3767244 3.075 3.075s-1.3767244 3.075-3.075 3.075zm-29.4359696-41.75577574c0-1.6982756 1.3767244-3.075 3.075-3.075s3.075 1.3767244 3.075 3.075v12.99903044c0 1.6982756-1.3767244 3.075-3.075 3.075s-3.075-1.3767244-3.075-3.075zm0 66.27174534c0-1.6982756 1.3767244-3.075 3.075-3.075s3.075 1.3767244 3.075 3.075v12.9990304c0 1.6982756-1.3767244 3.075-3.075 3.075s-3.075-1.3767244-3.075-3.075zm-27.1931628-52.7152964c-1.2008622-1.2008622-1.2008622-3.1478445 0-4.3487067 1.2008621-1.2008622 3.1478445-1.2008622 4.3487067 0l9.1917025 9.1917025c1.2008622 1.2008622 1.2008622 3.1478445 0 4.3487067s-3.1478445 1.2008622-4.3487067 0zm46.8612005 46.8612005c-1.2008622-1.2008622-1.2008622-3.1478445 0-4.3487067s3.1478445-1.2008622 4.3487067 0l9.1917025 9.1917026c1.2008622 1.2008622 1.2008622 3.1478445 0 4.3487067s-3.1478445 1.2008622-4.3487067 0zm8.5312891-50.7750365c1.2008622-1.2008622 3.1478445-1.2008622 4.3487067 0 1.2008622 1.2008621 1.2008622 3.1478445 0 4.3487067l-9.1917025 9.1917025c-1.2008622 1.2008622-3.1478445 1.2008622-4.3487067 0s-1.2008622-3.1478445 0-4.3487067zm-46.8612005 46.8612005c1.2008622-1.2008622 3.1478445-1.2008622 4.3487067 0s1.2008622 3.1478445 0 4.3487067l-9.1917026 9.1917025c-1.2008622 1.2008622-3.1478445 1.2008622-4.3487067 0s-1.2008622-3.1478445 0-4.3487067z" fill="url(#a)" transform="translate(86.835 10.45)"/><path d="m47.2899719 79.0385582c2.4546346-20.8576454 20.192704-37.0385582 41.7100281-37.0385582 14.835057 0 27.873693 7.6913914 35.345759 19.3040253 3.629484-.852907 7.413201-1.3040253 11.301968-1.3040253 27.256508 0 49.352273 22.1619049 49.352273 49.5 0 27.338095-22.095765 49.5-49.352273 49.5h-82.5795452c-22.1290458 0-40.0681818-17.992834-40.0681818-40.188119 0-20.2272027 14.898815-36.9641848 34.2899719-39.7733228z" fill="url(#b)"/></g></svg>