<svg height="200" viewBox="0 0 200 200" width="200" xmlns="http://www.w3.org/2000/svg" xmlns:xlink="http://www.w3.org/1999/xlink"><linearGradient id="a" x1="50%" x2="50%" y1="0%" y2="100%"><stop offset="0" stop-color="#a9d9ff"/><stop offset="1" stop-color="#7ac5ff"/></linearGradient><g fill="none" fill-rule="evenodd"><path d="m47.2899719 79.0385582c2.4546346-20.8576454 20.192704-37.0385582 41.7100281-37.0385582 14.835057 0 27.873693 7.6913914 35.345759 19.3040253 3.629484-.852907 7.413201-1.3040253 11.301968-1.3040253 27.256508 0 49.352273 22.1619049 49.352273 49.5 0 27.338095-22.095765 49.5-49.352273 49.5h-82.5795452c-22.1290458 0-40.0681818-17.992834-40.0681818-40.188119 0-20.2272027 14.898815-36.9641848 34.2899719-39.7733228z" fill="url(#a)" transform="translate(0 -28)"/><g fill="#a8d9ff" fill-rule="nonzero"><path d="m44.3625238 157.26602-7.6239562 15.247912c-1.2349463 2.469893-.2338245 5.473258 2.236068 6.708204 2.4698924 1.234946 5.4732576.233824 6.7082039-2.236068l7.6239563-15.247913c1.2349462-2.469892.2338245-5.473257-2.236068-6.708203-2.4698925-1.234947-5.4732577-.233825-6.708204 2.236068z"/><path d="m94.8646113 157.26602-7.6239562 15.247912c-1.2349463 2.469893-.2338245 5.473258 2.2360679 6.708204 2.4698925 1.234946 5.4732577.233824 6.708204-2.236068l7.623956-15.247913c1.234946-2.469892.233825-5.473257-2.236068-6.708203-2.4698922-1.234947-5.4732574-.233825-6.7082037 2.236068z"/><path d="m74.7888807 146.052841-7.6239563 15.247913c-1.2349462 2.469892-.2338245 5.473257 2.236068 6.708204 2.4698925 1.234946 5.4732577.233824 6.708204-2.236068l7.6239562-15.247913c1.2349463-2.469892.2338245-5.473258-2.236068-6.708204-2.4698924-1.234946-5.4732577-.233824-6.7082039 2.236068z"/><path d="m125.290968 146.052841-7.623956 15.247913c-1.234946 2.469892-.233825 5.473257 2.236068 6.708204 2.469892 1.234946 5.473258.233824 6.708204-2.236068l7.623956-15.247913c1.234946-2.469892.233825-5.473258-2.236068-6.708204-2.469892-1.234946-5.473258-.233824-6.708204 2.236068z"/><path d="m89.1518203 115.763932-7.6239563 15.247913c-1.2349462 2.469892-.2338245 5.473257 2.236068 6.708203 2.4698925 1.234947 5.4732577.233825 6.708204-2.236068l7.6239562-15.247912c1.2349463-2.469893.2338245-5.473258-2.236068-6.708204s-5.4732577-.233824-6.7082039 2.236068z"/><path d="m140.15182 115.763932-7.623956 15.247913c-1.234946 2.469892-.233824 5.473257 2.236068 6.708203 2.469893 1.234947 5.473258.233825 6.708204-2.236068l7.623956-15.247912c1.234946-2.469893.233825-5.473258-2.236068-6.708204-2.469892-1.234946-5.473257-.233824-6.708204 2.236068z"/><path d="m109.15182 126.763932-7.623956 15.247913c-1.234946 2.469892-.233824 5.473257 2.236068 6.708203 2.469893 1.234947 5.473258.233825 6.708204-2.236068l7.623956-15.247912c1.234946-2.469893.233825-5.473258-2.236068-6.708204-2.469892-1.234946-5.473257-.233824-6.708204 2.236068z"/><path d="m59.1518203 126.763932-7.6239563 15.247913c-1.2349462 2.469892-.2338245 5.473257 2.236068 6.708203 2.4698925 1.234947 5.4732577.233825 6.708204-2.236068l7.6239562-15.247912c1.2349463-2.469893.2338245-5.473258-2.236068-6.708204s-5.4732577-.233824-6.7082039 2.236068z"/></g></g></svg>