<svg height="200" viewBox="0 0 200 200" width="200" xmlns="http://www.w3.org/2000/svg" xmlns:xlink="http://www.w3.org/1999/xlink"><linearGradient id="a" x1="50%" x2="50%" y1="0%" y2="100%"><stop offset="0" stop-color="#fffcc9"/><stop offset="1" stop-color="#fff799"/></linearGradient><path d="m69.5 102c-17.9492544 0-32.5-14.5507456-32.5-32.5s14.5507456-32.5 32.5-32.5 32.5 14.5507456 32.5 32.5-14.5507456 32.5-32.5 32.5zm-64.3955703-29c-2.76142375 0-5-2.2385763-5-5s2.23857625-5 5-5h21.1366348c2.7614237 0 5 2.2385763 5 5s-2.2385763 5-5 5zm107.7589353 0c-2.761424 0-5-2.2385763-5-5s2.238576-5 5-5h21.136635c2.761424 0 5 2.2385763 5 5s-2.238576 5-5 5zm-47.863365-67.8955703c0-2.76142375 2.2385763-5 5-5s5 2.23857625 5 5v21.1366348c0 2.7614237-2.2385763 5-5 5s-5-2.2385763-5-5zm0 107.7589353c0-2.761424 2.2385763-5 5-5s5 2.238576 5 5v21.136635c0 2.761424-2.2385763 5-5 5s-5-2.238576-5-5zm-44.216525-85.7159289c-1.9526214-1.9526215-1.9526214-5.1184464 0-7.0710678 1.9526215-1.9526215 5.1184464-1.9526215 7.0710679 0l14.9458578 14.9458578c1.9526214 1.9526214 1.9526214 5.1184463 0 7.0710678-1.9526215 1.9526214-5.1184464 1.9526214-7.0710679 0zm76.1970741 76.1970739c-1.9526215-1.952621-1.9526215-5.1184462 0-7.0710677 1.9526214-1.9526215 5.1184459-1.9526215 7.0710679 0l14.945858 14.9458577c1.952621 1.952622 1.952621 5.118446 0 7.071068-1.952622 1.952621-5.118447 1.952621-7.071068 0zm13.8720149-82.561035c1.952621-1.9526214 5.118446-1.9526214 7.071068 0 1.952621 1.9526215 1.952621 5.1184464 0 7.0710679l-14.945858 14.9458578c-1.952622 1.9526214-5.1184464 1.9526214-7.0710679 0-1.9526214-1.9526215-1.9526214-5.1184464 0-7.0710679zm-76.1970741 76.1970741c1.9526215-1.9526215 5.1184463-1.9526215 7.0710678 0 1.9526215 1.9526214 1.9526215 5.1184459 0 7.0710679l-14.9458578 14.945858c-1.9526214 1.952621-5.1184463 1.952621-7.0710678 0-1.9526215-1.952622-1.9526215-5.118447 0-7.071068z" fill="url(#a)" fill-rule="evenodd" transform="translate(29 30)"/></svg>